<svg width="451" height="411" viewBox="0 0 451 411" fill="none" xmlns="http://www.w3.org/2000/svg">
<rect width="451" height="411" fill="white"/>
<path d="M40.4966 374.682C40.8237 377.298 50.0419 369.587 50.7644 369.086C58.1755 363.946 62.726 357.642 67.6657 349.993C74.7963 338.952 68.8533 323.669 64.3201 312.902C61.0583 305.156 56.89 297.923 52.2641 290.925C43.3068 277.374 42.1707 264.439 42.804 248.354C43.301 235.729 46.8749 228.512 54.4561 218.935C60.417 211.406 66.4985 206.188 71.1844 197.362C81.7655 177.43 84.6614 155.114 67.7811 137.947C54.6297 124.573 34.1362 118.779 23.9991 102.125C16.1603 89.2475 25.3698 72.6507 32.4209 62.1506C38.0615 53.751 44.2207 46.7005 49.8414 38.2695" stroke="#008080" stroke-width="3" stroke-linecap="round"/>
<path d="M392.058 374.682C392.385 377.298 401.603 369.587 402.325 369.086C409.737 363.946 414.287 357.642 419.227 349.993C426.357 338.952 420.414 323.669 415.881 312.902C412.619 305.156 408.451 297.923 403.825 290.925C394.868 277.374 393.732 264.439 394.365 248.354C394.862 235.729 398.436 228.512 406.017 218.935C411.978 211.406 418.06 206.188 422.745 197.362C433.327 177.43 436.222 155.114 419.342 137.947C406.191 124.573 385.697 118.779 375.56 102.125C367.721 89.2475 376.931 72.6507 383.982 62.1506C389.622 53.751 395.782 46.7005 401.402 38.2695" stroke="#008080" stroke-width="3" stroke-linecap="round"/>
<path d="M390.973 48.285C393.59 47.9579 385.879 38.7398 385.378 38.0173C380.238 30.6062 373.933 26.0557 366.285 21.1159C355.244 13.9853 339.96 19.9283 329.194 24.4616C321.447 27.7233 314.214 31.8917 307.216 36.5175C293.665 45.4748 280.731 46.6109 264.646 45.9777C252.021 45.4806 244.803 41.9068 235.227 34.3255C227.697 28.3646 222.48 22.2831 213.653 17.5972C193.721 7.01617 171.405 4.12026 154.239 21.0006C140.864 34.1519 135.071 54.6454 118.417 64.7826C105.539 72.6213 88.9422 63.4119 78.4421 56.3607C70.0426 50.7202 62.9921 44.5609 54.561 38.9402" stroke="#008080" stroke-width="3" stroke-linecap="round"/>
<path d="M387.973 381.285C390.59 380.958 382.879 371.74 382.378 371.017C377.238 363.606 370.933 359.056 363.285 354.116C352.244 346.985 336.96 352.928 326.194 357.462C318.447 360.723 311.214 364.892 304.216 369.518C290.665 378.475 277.731 379.611 261.646 378.978C249.021 378.481 241.803 374.907 232.227 367.326C224.697 361.365 219.48 355.283 210.653 350.597C190.721 340.016 168.405 337.12 151.239 354.001C137.864 367.152 132.071 387.645 115.417 397.783C102.539 405.621 85.9422 396.412 75.4421 389.361C67.0426 383.72 59.9921 377.561 51.561 371.94" stroke="#008080" stroke-width="3" stroke-linecap="round"/>
<path d="M57.1094 362.222C57.5289 358.027 57.6081 355.344 54.9751 351.723C51.0197 346.285 49.4915 339.521 46.9571 333.38C44.8778 328.342 39.2101 317.338 49.7836 323.285C62.2766 330.313 59.1861 342.557 59.1861 354.954" stroke="#008080" stroke-width="3" stroke-linecap="round"/>
<path d="M408.67 362.222C409.09 358.027 409.169 355.344 406.536 351.723C402.581 346.285 401.052 339.521 398.518 333.38C396.439 328.342 390.771 317.338 401.345 323.285C413.838 330.313 410.747 342.557 410.747 354.954" stroke="#008080" stroke-width="3" stroke-linecap="round"/>
<path d="M378.514 31.6722C374.319 31.2527 371.635 31.1736 368.015 33.8065C362.576 37.7619 355.813 39.2902 349.672 41.8246C344.633 43.9039 333.629 49.5715 339.577 38.998C346.604 26.505 358.848 29.5956 371.245 29.5956" stroke="#008080" stroke-width="3" stroke-linecap="round"/>
<path d="M375.514 364.672C371.319 364.253 368.635 364.174 365.015 366.806C359.576 370.762 352.813 372.29 346.672 374.825C341.633 376.904 330.629 382.572 336.577 371.998C343.604 359.505 355.848 362.596 368.245 362.596" stroke="#008080" stroke-width="3" stroke-linecap="round"/>
<path d="M44.6499 253.199C46.7656 252.494 49.6463 247.352 51.1105 245.47C53.2584 242.708 54.8062 240.677 58.0902 239.24C59.8914 238.452 69.874 235.855 67.8388 239.355C60.8823 251.321 55.9934 253.199 42.5732 253.199" stroke="#008080" stroke-width="3" stroke-linecap="round"/>
<path d="M396.211 253.199C398.327 252.494 401.207 247.352 402.671 245.47C404.819 242.708 406.367 240.677 409.651 239.24C411.452 238.452 421.435 235.855 419.4 239.355C412.443 251.321 407.554 253.199 394.134 253.199" stroke="#008080" stroke-width="3" stroke-linecap="round"/>
<path d="M269.491 44.1318C268.786 42.0161 263.644 39.1353 261.762 37.6712C259 35.5232 256.968 33.9754 255.532 30.6915C254.744 28.8902 252.146 18.9076 255.647 20.9429C267.612 27.8994 269.491 32.7882 269.491 46.2084" stroke="#008080" stroke-width="3" stroke-linecap="round"/>
<path d="M266.491 377.132C265.786 375.016 260.644 372.135 258.762 370.671C256 368.523 253.968 366.975 252.532 363.691C251.744 361.89 249.146 351.908 252.647 353.943C264.612 360.899 266.491 365.788 266.491 379.208" stroke="#008080" stroke-width="3" stroke-linecap="round"/>
<path d="M62.3011 203.361C61.4723 200.322 57.1297 197.508 55.0329 195.112C52.663 192.403 50.6809 190.071 48.8031 186.978C46.1259 182.569 44.9022 172.359 46.7841 167.654C47.1477 166.745 48.3017 168.927 48.8607 169.731C50.5966 172.226 52.4991 174.174 54.5714 176.365C56.0519 177.93 57.6093 180.95 58.0902 183.114C59.3265 188.677 58.1478 195.549 58.1478 201.284" stroke="#008080" stroke-width="3" stroke-linecap="round"/>
<path d="M413.862 203.361C413.033 200.322 408.691 197.508 406.594 195.112C404.224 192.403 402.242 190.071 400.364 186.978C397.687 182.569 396.463 172.359 398.345 167.654C398.709 166.745 399.863 168.927 400.422 169.731C402.158 172.226 404.06 174.174 406.132 176.365C407.613 177.93 409.17 180.95 409.651 183.114C410.888 188.677 409.709 195.549 409.709 201.284" stroke="#008080" stroke-width="3" stroke-linecap="round"/>
<path d="M219.652 26.4806C216.614 27.3093 213.8 31.6519 211.404 33.7487C208.695 36.1187 206.363 38.1008 203.27 39.9786C198.861 42.6557 188.651 43.8794 183.946 41.9975C183.037 41.634 185.219 40.4799 186.023 39.9209C188.518 38.1851 190.466 36.2825 192.656 34.2102C194.221 32.7297 197.241 31.1724 199.405 30.6915C204.969 29.4551 211.841 30.6338 217.576 30.6338" stroke="#008080" stroke-width="3" stroke-linecap="round"/>
<path d="M216.652 359.481C213.614 360.309 210.8 364.652 208.404 366.749C205.695 369.119 203.363 371.101 200.27 372.979C195.861 375.656 185.651 376.879 180.946 374.998C180.037 374.634 182.219 373.48 183.023 372.921C185.518 371.185 187.466 369.283 189.656 367.21C191.221 365.73 194.241 364.172 196.405 363.691C201.969 362.455 208.841 363.634 214.576 363.634" stroke="#008080" stroke-width="3" stroke-linecap="round"/>
<path d="M57.1095 127.564C63.5972 124.32 64.3776 104.804 64.3776 98.7221C64.3776 95.5337 63.3393 92.373 63.3393 89.6658C63.3393 87.8624 57.9083 92.6164 56.7057 93.819C52.1326 98.3921 49.0706 105.305 49.899 111.932C50.8553 119.583 60.5969 123.783 65.4159 128.602" stroke="#008080" stroke-width="3" stroke-linecap="round"/>
<path d="M408.671 127.564C415.158 124.32 415.939 104.804 415.939 98.7221C415.939 95.5337 414.9 92.373 414.9 89.6658C414.9 87.8624 409.469 92.6164 408.267 93.819C403.694 98.3921 400.632 105.305 401.46 111.932C402.416 119.583 412.158 123.783 416.977 128.602" stroke="#008080" stroke-width="3" stroke-linecap="round"/>
<path d="M143.856 31.6722C140.612 25.1845 121.096 24.404 115.014 24.404C111.825 24.404 108.665 25.4423 105.957 25.4423C104.154 25.4423 108.908 30.8733 110.111 32.076C114.684 36.649 121.596 39.711 128.223 38.8827C135.874 37.9263 140.075 28.1848 144.894 23.3657" stroke="#008080" stroke-width="3" stroke-linecap="round"/>
<path d="M140.856 364.672C137.612 358.184 118.096 357.404 112.014 357.404C108.825 357.404 105.665 358.442 102.957 358.442C101.154 358.442 105.908 363.873 107.111 365.076C111.684 369.649 118.596 372.711 125.223 371.883C132.874 370.926 137.075 361.185 141.894 356.366" stroke="#008080" stroke-width="3" stroke-linecap="round"/>
</svg>
